<svg xmlns="http://www.w3.org/2000/svg" viewBox="0 0 582.68 191.05" role="img" aria-labelledby="homepageLogoTitle" alt="QA Logo">
    <rect width="100%" height="100%" fill="#FFFFFF"/>
    <defs>
        <style>
            .cls-1 {
                fill: #2fb7da;
            }
            .cls-2 {
                fill: #fcac69;
            }
            .cls-3 {
                fill: #82caae;
            }
            .cls-4 {
                fill: #fc5b61;
            }
            .cls-5 {
                fill: #9e84f5;
            }
            .cls-6 {
                fill: #ffdc57;
            }
        </style>
    </defs>
    <g id="Layer_1-2" data-name="Layer 1">
        <g>
            <g>
                <g>
                    <path fill="#000000" d="M376.95,147.03c10.83-14.53,17.96-32.22,17.96-51.5,0-51.77-42.79-93.76-95.61-93.76s-95.61,41.99-95.61,93.76,42.79,93.76,95.61,93.76h82.89l16.3-42.26h-21.54ZM299.3,147.03c-27.73,0-50.18-23.24-50.18-51.5s22.45-51.5,50.18-51.5,50.18,23.24,50.18,51.5-22.45,51.5-50.18,51.5Z"></path>
                    <path fill="#000000" d="M511.37,4.41h-47.54l-55.01,142.62-16.3,42.26h45.16l14.79-40.41h68.93l14.79,40.41h46.48L511.37,4.41ZM466.73,110.58l20.34-54.67,20.07,54.67h-40.41Z"></path>
                </g>
                <g>
                    <circle class="cls-4" cx="86.27" cy="24.06" r="24.05"></circle>
                    <circle class="cls-6" cx="147.93" cy="131.29" r="24.05"></circle>
                    <circle class="cls-1" cx="24.06" cy="131.38" r="24.05"></circle>
                    <g>
                        <path fill="#000000" d="M24.06,132.73c-.47,0-.92-.24-1.17-.68-.37-.64-.15-1.47.5-1.84l62.09-35.7c.64-.37,1.47-.15,1.84.5.37.64.15,1.47-.5,1.84l-62.09,35.7c-.21.12-.44.18-.67.18Z"></path>
                        <path fill="#000000" d="M86.14,97.02c-.23,0-.46-.06-.67-.18L23.51,60.93c-.64-.37-.86-1.2-.49-1.84.37-.64,1.2-.86,1.84-.49l61.96,35.92c.64.37.86,1.2.49,1.84-.25.43-.7.67-1.17.67Z"></path>
                        <path fill="#000000" d="M86.15,97.02h0c-.74,0-1.34-.6-1.34-1.35l.12-71.62c0-.74.6-1.34,1.35-1.34h0c.74,0,1.34.6,1.34,1.35l-.12,71.62c0,.74-.6,1.34-1.35,1.34Z"></path>
                        <path fill="#000000" d="M86.15,97.02c-.47,0-.92-.24-1.17-.68-.37-.64-.15-1.47.5-1.84l62.09-35.7c.64-.37,1.47-.15,1.84.5.37.64.15,1.47-.5,1.84l-62.09,35.7c-.21.12-.44.18-.67.18Z"></path>
                        <path fill="#000000" d="M148.11,132.94c-.23,0-.46-.06-.67-.18l-61.96-35.92c-.64-.37-.86-1.2-.49-1.84.37-.64,1.2-.86,1.84-.49l61.96,35.92c.64.37.86,1.2.49,1.84-.25.43-.7.67-1.17.67Z"></path>
                        <path fill="#000000" d="M86.02,168.65h0c-.74,0-1.34-.6-1.34-1.35l.12-71.62c0-.74.6-1.34,1.35-1.34h0c.74,0,1.34.6,1.34,1.35l-.12,71.62c0,.74-.6,1.34-1.35,1.34Z"></path>
                    </g>
                    <circle class="cls-2" cx="148.23" cy="59.97" r="24.05"></circle>
                    <circle class="cls-5" cx="24.18" cy="59.76" r="24.05"></circle>
                    <circle class="cls-3" cx="85.84" cy="166.99" r="24.05"></circle>
                </g>
            </g>

        </g>
    </g>
</svg>